# xmcd
#
# Track frame offsets:
#	150
#	11535
#	24907
#	37255
#	53957
#	65770
#	77795
#	93472
#	103890
#	114992
#	124072
#	137467
#	151060
#	165772
#	176910
#	189477
#	202177
#	217392
#	229565
#	241417
#
# Disc length: 3396 seconds
#
# Revision: 9
# Processed by: cddbd v1.5.2PL0 Copyright (c) Steve Scherf et al.
# Submitted via: EasyCDDAExtractor 15.3.0.1
#
DISCID=150d4214
DTITLE=Cher - The Cher Collection - The Way Of Love - CD 1
DYEAR=2000
DGENRE=Pop
TTITLE0=The Way Of Love
TTITLE1=All I Really Want To Do
TTITLE2=Bang Bang (My Baby Shot Me Down)
TTITLE3=You Better Sit Down Kids
TTITLE4=Gypsys, Tramps and Thieves
TTITLE5=All I Ever Need Is You (Sonny and Cher)
TTITLE6=He'll Never Know
TTITLE7=When You Find Out Where You're Goin' Let Me Know
TTITLE8=I Hate To Sleep Alone
TTITLE9=Touch And Go
TTITLE10=Living In A House Divided
TTITLE11=It Might As Well Stay Monday (From Now On)
TTITLE12=Song For You
TTITLE13=When You Say Love (Sonny and Cher)
TTITLE14=Don't Ever Try To Close A Rose
TTITLE15=Don't Hide Your Love
TTITLE16=How Can You Mend A Broken Heart
TTITLE17=Two People Clinging To A Thread
TTITLE18=Don't Put It On Me
TTITLE19=Classified 1A
EXTD=YEAR: 2000 ID3G:  13
EXTT0=
EXTT1=
EXTT2=
EXTT3=
EXTT4=
EXTT5=
EXTT6=
EXTT7=
EXTT8=
EXTT9=
EXTT10=
EXTT11=
EXTT12=
EXTT13=
EXTT14=
EXTT15=
EXTT16=
EXTT17=
EXTT18=
EXTT19=
PLAYORDER=
